<svg xmlns="http://www.w3.org/2000/svg" width="86.296" height="81.701" viewBox="0 0 86.296 81.701">
  <g id="alarm" transform="translate(0 -13.633)">
    <path id="Path_2562" data-name="Path 2562" d="M79.422,95.333H6.875A6.721,6.721,0,0,1,.926,91.906a6.88,6.88,0,0,1-.044-6.817L37.155,17.139a6.875,6.875,0,0,1,11.986,0h0L85.415,85.088a6.879,6.879,0,0,1-.044,6.817A6.72,6.72,0,0,1,79.422,95.333ZM43.148,17.341a2.965,2.965,0,0,0-2.722,1.545L4.153,86.835a3.188,3.188,0,0,0-.019,3.211,3.057,3.057,0,0,0,2.74,1.579H79.422a3.057,3.057,0,0,0,2.74-1.579,3.188,3.188,0,0,0-.019-3.211L45.87,18.886A2.965,2.965,0,0,0,43.148,17.341Z" transform="translate(0)" fill="#fcc040"/>
    <g id="Group_1175" data-name="Group 1175" transform="translate(41.294 42.352)">
      <path id="Path_2563" data-name="Path 2563" d="M246.842,212.574a1.854,1.854,0,0,1-1.854-1.854V185.871a1.854,1.854,0,1,1,3.708,0V210.72A1.854,1.854,0,0,1,246.842,212.574Z" transform="translate(-244.988 -184.017)" fill="#fcc040"/>
      <path id="Path_2564" data-name="Path 2564" d="M246.842,395.149a1.874,1.874,0,0,1-.362-.035,1.844,1.844,0,0,1-.347-.106,1.812,1.812,0,0,1-.32-.17,1.83,1.83,0,0,1-.281-.231,1.761,1.761,0,0,1-.231-.281,2.1,2.1,0,0,1-.17-.32,2.021,2.021,0,0,1-.106-.347,1.872,1.872,0,0,1,0-.725,2.016,2.016,0,0,1,.106-.346,1.935,1.935,0,0,1,.17-.32,1.705,1.705,0,0,1,.231-.281,1.834,1.834,0,0,1,.6-.4,1.861,1.861,0,0,1,1.739.17,1.849,1.849,0,0,1,.282.231,1.874,1.874,0,0,1,.231.281,1.937,1.937,0,0,1,.17.32,1.912,1.912,0,0,1,.1.346,1.775,1.775,0,0,1,.037.362,1.75,1.75,0,0,1-.037.362,1.908,1.908,0,0,1-.1.347,2.067,2.067,0,0,1-.17.32,1.952,1.952,0,0,1-.231.281,1.877,1.877,0,0,1-.949.508A1.889,1.889,0,0,1,246.842,395.149Z" transform="translate(-244.988 -356.479)" fill="#fcc040"/>
    </g>
  </g>
</svg>
