<svg id="letter-x" xmlns="http://www.w3.org/2000/svg" width="81.7" height="81.7" viewBox="0 0 81.7 81.7">
  <path id="Path_2581" data-name="Path 2581" d="M63.379,81.7H18.321A18.342,18.342,0,0,1,0,63.379V18.321A18.342,18.342,0,0,1,18.321,0H63.379A18.342,18.342,0,0,1,81.7,18.321V63.379A18.342,18.342,0,0,1,63.379,81.7ZM18.321,3.511a14.827,14.827,0,0,0-14.81,14.81V63.379a14.827,14.827,0,0,0,14.81,14.81H63.379a14.827,14.827,0,0,0,14.81-14.81V18.321a14.827,14.827,0,0,0-14.81-14.81Z" fill="#d63939"/>
  <path id="Path_2582" data-name="Path 2582" d="M173.685,137.694l13.774-19.7a1.755,1.755,0,0,0-2.877-2.011l-13.039,18.649L158.5,115.982a1.755,1.755,0,0,0-2.877,2.011l13.774,19.7-13.774,19.7a1.755,1.755,0,1,0,2.877,2.011l13.039-18.649,13.039,18.649a1.755,1.755,0,0,0,2.877-2.011Z" transform="translate(-130.527 -96.844)" fill="#d63939"/>
</svg>
