<svg id="verified" xmlns="http://www.w3.org/2000/svg" width="81.7" height="81.7" viewBox="0 0 81.7 81.7">
  <path id="Path_2579" data-name="Path 2579" d="M40.85,81.7A40.85,40.85,0,0,1,11.965,11.965,40.85,40.85,0,0,1,69.736,69.736,40.583,40.583,0,0,1,40.85,81.7Zm0-78.19A37.34,37.34,0,1,0,78.19,40.85,37.382,37.382,0,0,0,40.85,3.511Z" transform="translate(0)" fill="#39d26f"/>
  <path id="Path_2580" data-name="Path 2580" d="M143.222,192.112a1.75,1.75,0,0,1-1.236-.509L129.3,179.017a1.755,1.755,0,0,1,2.473-2.492l11.439,11.354,21.66-21.66a1.755,1.755,0,1,1,2.482,2.482l-22.9,22.9A1.75,1.75,0,0,1,143.222,192.112Z" transform="translate(-108.235 -139.263)" fill="#39d26f"/>
</svg>
